<?xml version="1.0" standalone="no"?>
<!DOCTYPE svg PUBLIC "-//W3C//DTD SVG 20010904//EN"
 "http://www.w3.org/TR/2001/REC-SVG-20010904/DTD/svg10.dtd">
<svg version="1.0" xmlns="http://www.w3.org/2000/svg"
 width="800.000000pt" height="800.000000pt" viewBox="0 0 800.000000 800.000000"
 preserveAspectRatio="xMidYMid meet">
<metadata>
Created by potrace 1.14, written by Peter Selinger 2001-2017
</metadata>
<g transform="translate(0.000000,800.000000) scale(0.100000,-0.100000)"
fill="#000000" stroke="none">
<path d="M1913 7781 l-23 -19 0 -3760 c0 -3652 1 -3759 19 -3776 17 -15 111
-16 1317 -13 l1299 3 125 27 c296 66 525 170 758 344 93 70 306 275 373 359
161 202 273 492 315 808 21 159 31 961 15 1187 -16 239 -53 385 -139 552 -102
200 -201 304 -476 500 -18 12 -13 18 65 79 109 85 274 257 338 351 95 142 158
288 196 457 15 64 18 155 22 629 7 745 -2 849 -98 1136 -64 194 -187 381 -378
578 -177 182 -297 271 -506 372 -189 92 -366 145 -615 182 -91 14 -275 17
-1345 20 -1210 3 -1241 3 -1262 -16z m2367 -770 c282 -37 487 -109 641 -222
158 -117 249 -256 307 -469 l26 -95 4 -545 c5 -720 1 -747 -122 -899 -181
-224 -529 -375 -971 -421 -64 -7 -381 -14 -757 -17 l-648 -5 0 1347 0 1347
718 -5 c450 -3 749 -9 802 -16z m-10 -3456 c152 -17 350 -63 455 -105 267
-107 435 -284 506 -535 22 -77 23 -96 27 -575 4 -562 -4 -660 -61 -775 -158
-320 -457 -515 -876 -571 -143 -19 -1540 -21 -1559 -2 -9 9 -12 310 -12 1295
l0 1283 693 0 c554 0 719 -3 827 -15z"/>
</g>
</svg>
